<svg width="100%" style="" viewBox="0 0 111 128" fill="currentColor" xmlns="http://www.w3.org/2000/svg">
  <path d="M0 0H82.1538L89 5H0V0Z" fill="currentColor"/>
  <path d="M103 119V33.9999L99 29.9999V119L103 119Z" fill="currentColor"/>
  <path d="M16 10H95L111 27V107L106 112V31L91 15H16V10Z" fill="currentColor"/>
  <path d="M106 123C106 125.761 103.761 128 101 128C98.2386 128 96 125.761 96 123C96 120.239 98.2386 118 101 118C103.761 118 106 120.239 106 123ZM97.8831 123C97.8831 124.721 99.2786 126.117 101 126.117C102.721 126.117 104.117 124.721 104.117 123C104.117 121.279 102.721 119.883 101 119.883C99.2786 119.883 97.8831 121.279 97.8831 123Z" fill="currentColor"/>
</svg>
