<svg width="100%" style="" viewBox="0 0 123 120" fill="currentColor" xmlns="http://www.w3.org/2000/svg">
  <path d="M114 117H31.8462L25 112H114V117Z" fill="currentColor"/>
  <path d="M113 115C113 112.239 115.239 110 118 110C120.761 110 123 112.239 123 115C123 117.761 120.761 120 118 120C115.239 120 113 117.761 113 115ZM121.117 115C121.117 113.279 119.721 111.883 118 111.883C116.279 111.883 114.883 113.279 114.883 115C114.883 116.721 116.279 118.117 118 118.117C119.721 118.117 121.117 116.721 121.117 115Z" fill="currentColor"/>
  <path d="M98 107H19L3 90V9H7.5L8 86L23 102H98V107Z" fill="currentColor"/>
  <path d="M0 5C0 2.23858 2.23858 0 5 0C7.76142 0 10 2.23858 10 5C10 7.76142 7.76142 10 5 10C2.23858 10 0 7.76142 0 5ZM8.11686 5C8.11686 3.27861 6.72139 1.88314 5 1.88314C3.27861 1.88314 1.88314 3.27861 1.88314 5C1.88314 6.72139 3.27861 8.11686 5 8.11686C6.72139 8.11686 8.11686 6.72139 8.11686 5Z" fill="currentColor"/>
</svg>
